<svg xmlns="http://www.w3.org/2000/svg" viewBox="0 0 100 100">
  <!-- Background -->
  <circle cx="50" cy="50" r="49" fill="#0d0d0d"/>
  
  <!-- 6 aperture blade segments arranged in a circle -->
  <!-- Using simple arcs from outer circle to inner circle -->
  
  <!-- Blade 1: Pink accent -->
  <path d="M 50,2 A 48,48 0 0 1 91.5,25 L 60.4,44 A 12,12 0 0 0 50,38 Z" fill="#ff3366" opacity="0.9"/>
  
  <!-- Blade 2: Black -->
  <path d="M 91.5,25 A 48,48 0 0 1 91.5,75 L 60.4,56 A 12,12 0 0 0 60.4,44 Z" fill="#1a1a1a"/>
  
  <!-- Blade 3: Dark grey -->
  <path d="M 91.5,75 A 48,48 0 0 1 50,98 L 50,62 A 12,12 0 0 0 60.4,56 Z" fill="#333"/>
  
  <!-- Blade 4: Black -->
  <path d="M 50,98 A 48,48 0 0 1 8.5,75 L 39.6,56 A 12,12 0 0 0 50,62 Z" fill="#1a1a1a"/>
  
  <!-- Blade 5: Dark grey -->
  <path d="M 8.5,75 A 48,48 0 0 1 8.5,25 L 39.6,44 A 12,12 0 0 0 39.6,56 Z" fill="#333"/>
  
  <!-- Blade 6: Black -->
  <path d="M 8.5,25 A 48,48 0 0 1 50,2 L 50,38 A 12,12 0 0 0 39.6,44 Z" fill="#1a1a1a"/>
  
  <!-- Center aperture opening -->
  <circle cx="50" cy="50" r="12" fill="#000"/>
</svg>
